<?xml version="1.0" encoding="utf-8"?>
<!-- Generator: Adobe Illustrator 22.1.0, SVG Export Plug-In . SVG Version: 6.00 Build 0)  -->
<svg version="1.1" id="Layer_1" xmlns="http://www.w3.org/2000/svg" xmlns:xlink="http://www.w3.org/1999/xlink" x="0px" y="0px"
	 viewBox="0 0 1920 500" style="enable-background:new 0 0 1920 500;" xml:space="preserve">
<style type="text/css">
	.st0{fill:#FFFFFF;}
	.st1{fill:#DA291C;}
</style>
<g>
	<path class="st0" d="M126,53v88H38V53H126 M132,47H32v100h100V47L132,47z"/>
</g>
<g>
	<rect x="1" y="76" class="st1" width="100" height="100"/>
</g>
<g>
	<path class="st0" d="M444,182v88h-88v-88H444 M450,176H350v100h100V176L450,176z"/>
</g>
<g>
	<path class="st1" d="M627,115v88h-88v-88H627 M633,109H533v100h100V109L633,109z"/>
</g>
<g>
	<path class="st1" d="M889,254v88h-88v-88H889 M895,248H795v100h100V248L895,248z"/>
</g>
<g>
	<path class="st1" d="M1075,82v88h-88V82H1075 M1081,76H981v100h100V76L1081,76z"/>
</g>
<g>
	<path class="st0" d="M1541,157v88h-88v-88H1541 M1547,151h-100v100h100V151L1547,151z"/>
</g>
<g>
	<path class="st0" d="M1914,352v88h-88v-88H1914 M1920,346h-100v100h100V346L1920,346z"/>
</g>
<g>
	<rect x="1786" y="313" class="st1" width="100" height="100"/>
</g>
<g>
	<rect x="1267" y="196" class="st1" width="100" height="100"/>
</g>
<g>
	<rect x="764" y="278" class="st0" width="100" height="100"/>
</g>
<g>
	<rect x="1012" y="108" class="st0" width="100" height="100"/>
</g>
<g>
	<rect x="1686" y="47" class="st0" width="100" height="100"/>
</g>
</svg>
