<svg version="1" xmlns="http://www.w3.org/2000/svg" width="933.333" height="933.333" viewBox="0 0 700.000000 700.000000"><path d="M85 42.5V85H0v615h615v-85h85V0H85v42.5zm330 405V492h-5c-4.4 0-5-.3-5-2.1 0-2 0-2-3.1.2-3.9 2.8-10.6 3-14.4.5-1.5-1-3.7-3.9-4.8-6.4-2-4.3-2.2-6.3-2.1-23.2.1-15.7.4-19.2 2-23.5 3.6-9.1 12.2-12 19.6-6.5l2.8 2.1V403h10v44.5zM89.6 432.1c2.9 2.8 5.9 10.2 4.8 12-.2.4-1.7 1.2-3.3 1.7-2.8 1-2.9.9-3.5-2.3-.7-3.6-4.7-7.5-7.6-7.5-1.8 0-4.3 2.5-5.3 5.3-1.1 3.1 1.2 6.8 9.6 15.2C94 466.1 96 469.7 96 477.3c0 19.6-28.5 21-31.6 1.5-.6-3.2-.4-3.5 3.2-4.6 4.2-1.2 5.4-.9 5.4 1.6 0 3 3.7 7.9 6.4 8.6 5.6 1.4 9.6-3.9 7.6-10-.8-2.2-4.2-6.2-9.6-11.1-9-8.3-12.4-13.6-12.4-19.6 0-4.5 2-9.6 4.8-12 5.2-4.7 14.8-4.5 19.8.4zm42.4-1.2c4.2 3 6 8.3 6.7 19.2l.6 9.9H115v8.5c0 10.3 1.6 14.9 5.5 15.9 5.2 1.3 8.5-3 8.5-11 0-2.2.4-2.4 5.1-2.4h5.2l-.7 5.2c-1.6 11.6-6.3 16.3-16.2 16.2-7.6-.1-12.1-2.5-14.9-7.9-1.8-3.6-2-6-2-24 0-16.8.3-20.6 1.7-23.7 1.8-3.7 5.7-7.1 9.3-8.1 3.6-1 12.9.3 15.5 2.2zm47.1-1.9c1 .6 2.6 2.5 3.5 4.2l1.6 3.1 2.5-2.8c5.6-6 13.5-7.1 18.5-2.6l3.3 2.9.3 29.1.3 29.1H200v-26.3c0-22.1-.2-26.6-1.6-28.5-1.9-2.8-5.6-2.8-10-.1l-3.4 2.1V492h-10v-26.3c0-22.1-.2-26.6-1.6-28.5-1.9-2.8-5.2-2.8-9.5.1l-3.4 2.3-.3 26.2-.2 26.2h-10v-63h5c4.9 0 5 0 5 3.2v3.1l2.3-2.1c5.1-4.8 12.3-6.6 16.8-4.2zm66.4.4c4.1 1.8 7.3 6.5 7.9 12.1.3 2.2.7 14.5.9 27.2l.3 23.3h-4.2c-4.4 0-5.4-1-5.4-5.5 0-3.7-1.4-3.7-3.4-.1-6.9 12.9-23.6 3.5-21.1-11.8 1.5-8.5 5.9-13.4 16.6-18.6l7.1-3.5-.4-6.2c-.4-6.9-2.6-10.3-6.5-10.3-3.6 0-6.3 3.4-6.3 8v4h-10.7l.8-5c.4-2.7 1.6-6.3 2.6-8 3.5-6.1 14.1-8.8 21.8-5.6zm49.7-.3c4.3 2.3 4.8 6.1 4.8 35.4V492h-9.9l-.3-26.5c-.3-22.3-.5-26.7-1.8-27.5-2.3-1.5-5.2-1.2-8.7 1l-3.3 2v51h-10v-63h5c4.9 0 5 .1 5 3 0 3.6.3 3.7 4.5.4 5.3-4 11-5.3 14.7-3.3zm41.3.3c4.4 1.9 7.3 6.6 7.9 13 .3 2.8.7 15.1.8 27.4l.3 22.3-4.5-.3c-4.3-.3-4.5-.4-5.1-4.1-.8-5-1.2-5.2-3.3-1.3-2.2 4.1-5.5 6-10.1 5.9-10.5-.3-14.8-14.8-7.7-26.3 2.3-3.7 4.3-5.3 11.6-9l8.8-4.5-.6-6.5c-.4-5-1-6.9-2.7-8.3-4.7-3.8-9.9-.5-9.9 6.3v4h-10.8l.5-4.3c.3-2.3 1.4-5.9 2.5-8 3.3-6.7 14.1-9.7 22.3-6.3zm113-.4c7.3 1.7 9.8 6.8 11 22.2l.6 8.8H436.8l.4 10.6c.3 9.7.5 10.7 2.7 12.5 5.2 4.3 10.1.8 10.1-7.1v-5h10.8l-.5 4.7c-1.2 11.7-6.2 16.7-16.3 16.7-9.1-.1-14.2-3.8-16-12-1.3-5.4-1.2-36 0-40.6 2.6-9.4 10.5-13.4 21.5-10.8zM346.8 534.8c-.1.4-2.5 5.1-5.3 10.5-4.4 8.5-5.3 9.7-7.6 9.7h-2.7l3.1-10.5 3-10.5h4.9c2.7 0 4.8.3 4.6.8zM78 545v6H67v-12h11v6zm82-2c0 3.9-.1 4-3.5 4-4.3 0-5.5 2-5.5 8.9v5.1h9v8h-9v55h-10l-.2-27.3-.3-27.2-3.7-.3c-3.7-.3-3.8-.4-3.8-4.3s0-3.9 3.9-3.9h3.9l.4-8.1c.3-7.7.5-8.2 3.6-11 2.8-2.5 4-2.9 9.2-2.9h6v4zm245 2v6h-11v-12h11v6zm-31 7v9h10v7h-10.1l.3 23c.2 15.5.7 23.3 1.5 24.1.6.6 2.7 1.1 4.7 1.1 3.5 0 3.6.1 3.6 3.8 0 3.7-.2 3.9-4 4.5-7.9 1.3-13.1-1.5-14.9-8.2-.6-2.1-1.1-13.7-1.1-26.1V568h-3c-2.8 0-3-.3-3-3.5s.2-3.5 3-3.5h3v-18h10v9zm-254.1 9.3c4.4 2.2 4.9 6.1 5 35.4l.1 27.3h-9.9l-.3-25.8c-.3-27.8-.6-29.2-5.5-29.2-1.4 0-3.8.9-5.4 2.1l-2.9 2V624H91v-63h5c4.9 0 5 .1 5 3 0 3.6.3 3.7 4.5.4 5.4-4.1 10.4-5.2 14.4-3.1zm73.1 1.5c1.4 1 3.6 4 5 6.8 2.4 4.7 2.5 5.7 2.5 22.4 0 18.8-.7 22.7-5.2 28-5 6-16.5 6.4-22.8.9-4.5-4-5.5-7.8-6.2-23.4-1-22.9 2.1-33 10.8-36.3 4.4-1.6 12.6-.8 15.9 1.6zm45 3.3v6.1l-3.1-.6c-3.7-.7-9.3 1.5-10.8 4.2-.7 1.3-1.1 10.5-1.1 25.1V624h-11v-63h11v9.5l2.1-3.2c1.9-2.9 8.8-7.3 11.7-7.3.8 0 1.2 1.9 1.2 6.1zm37.3-4.1c1.4 1.1 2.9 2.9 3.2 4 .6 1.8.9 1.6 5.1-1.5 7.4-5.7 14.6-5.7 18.8-.1 2 2.6 2.1 4.3 2.4 31.2l.3 28.4h-9l-.3-26.3c-.2-14.4-.7-27-1.2-27.9-1.7-3.6-7.2-3.5-11.9.3l-2.7 2V624h-9v-25.4c0-14-.4-26.6-1-28-1.7-4.5-7.8-4.4-12.7.3-2.3 2.1-2.3 2.5-2.3 27.6V624h-9v-63h4.5c4.3 0 4.5.1 4.5 3 0 3.5 1 3.8 3.6.9 4.3-4.9 12.4-6.3 16.7-2.9zm66.3 0c6.7 3.3 7.8 6.6 8.1 24.5.2 8.2.4 20.1.6 26.2l.2 11.3h-4.7c-4.5 0-4.8-.1-4.9-2.8 0-1.5-.4-3.6-.8-4.7-.8-2-.8-2-1.5.1-.9 3-5.7 7.1-9.1 7.8-6.7 1.4-13.5-5.6-13.5-14 0-9.8 4.1-15.7 14.9-21.3 4.4-2.3 8.3-4.6 8.6-5 1.1-1.9-1.2-13.4-3-14.8-4.3-3.1-8.8-.1-10 6.6l-.7 4.1h-10.1l.7-4.3c1.1-6.8 3.7-11 8.6-13.5 5.5-2.7 11.1-2.8 16.6-.2zm101.2.2c3.8 1.9 6.2 6.7 6.9 14.2l.6 6.6H440v-5.5c0-4.2-.5-6-2-7.5-2.6-2.6-6.2-2.5-8.6.1-1.7 1.9-1.9 3.9-1.9 22.4 0 18.6.2 20.5 1.9 22.4 1.1 1.2 3 2.1 4.3 2.1 3.8 0 5.9-3.1 6.7-9.9l.7-6.1h9.2l-.6 6.4c-1.2 13.2-4.9 17.1-16 17-7.6 0-10.8-1.7-14.2-7.5-1.8-3-2-5.6-2.3-22-.2-11.7.1-20.2.8-22.8 1.4-5.4 5.6-10 10-11.1 4.2-1.1 11.3-.5 14.8 1.2zm44 .5c1.5 1 3.6 3.7 4.7 5.9 1.8 3.5 2 6.5 2.5 29.7l.5 25.7h-9.2l-.9-4.7-.9-4.6-2.5 3.9c-1.6 2.4-3.9 4.4-6.2 5.2-3.3 1.3-4.1 1.2-7.5-.4-9.3-4.6-9.9-21-1.1-29 1.2-1.2 5.6-3.8 9.6-5.8l7.2-3.6v-6.5c0-5.2-.4-6.9-2-8.5-4.2-4.2-9.8-1.2-10.7 5.8l-.6 4.2h-4.8c-4.4 0-4.9-.2-4.9-2.3 0-7.2 5.7-15.9 11.2-17 4.8-1.1 12.9 0 15.6 2zM78 592.5V624H67v-63h11v31.5zm327 0V624h-11v-63h11v31.5z"/><path d="M392.7 439.9c-1.4 2.4-1.7 5.6-1.7 19.9 0 16.5.7 21.8 3.3 23.4 1.8 1.1 5.3 1 8.2-.4l2.5-1.1v-42.4l-2.5-1.1c-4.6-2.1-7.9-1.5-9.8 1.7zM117.6 437.9c-1.2 1.3-1.7 3.9-1.9 9.2l-.2 7.4h13l-.1-7.5c-.2-6.3-.5-7.7-2.4-9.2-2.9-2.3-6.2-2.3-8.4.1zM237.8 462.8c-2 1.5-4.4 4-5.4 5.6-1.9 3.3-2.2 9.2-.5 12.4 1.7 3.2 6.5 2.9 9.6-.4 2.3-2.4 2.5-3.5 2.5-11.5 0-10-.4-10.4-6.2-6.1zM328.8 462.8c-6.8 4.9-9 10.5-6.4 16.6 1.2 2.9 2 3.6 4.4 3.6 1.8 0 3.8-1 5.5-2.8 2.5-2.6 2.7-3.4 2.7-11.5 0-9.8-.4-10.2-6.2-5.9zM440.3 436.8c-2 1.3-3.3 6.1-3.3 12.3v5.9h13v-7.5c0-6.2-.4-7.9-2-9.5-2-2-5.5-2.6-7.7-1.2zM179.5 570.5c-2.5 2.4-2.5 2.5-2.5 21.8 0 18.1.1 19.6 2.1 22.1 1.2 1.5 3 2.6 4.4 2.6 1.4 0 3.2-1.1 4.4-2.6 2-2.5 2.1-4 2.1-22.1 0-19.3 0-19.4-2.5-21.8-1.3-1.4-3.1-2.5-4-2.5-.9 0-2.7 1.1-4 2.5zM333.4 595c-6.7 4.7-9.3 12.8-5.8 17.8 2 2.9 6.4 2.9 9.2-.1 1.9-2 2.2-3.5 2.2-11.5 0-5.1-.3-9.2-.7-9.2-.5.1-2.7 1.4-4.9 3zM477.7 594.8c-5 3.6-7.7 7.9-7.7 12.2 0 7.4 6.2 10.6 10.8 5.7 1.9-2 2.2-3.5 2.2-11.5 0-5.1-.3-9.2-.7-9.2-.5.1-2.5 1.3-4.6 2.8z"/></svg>